<svg width="15" height="15" viewBox="0 0 15 15" fill="none" xmlns="http://www.w3.org/2000/svg">
<g clip-path="url(#clip0_1545_13417)">
<path d="M12.3473 5.75C12.3473 8.24 7.84729 14.25 7.84729 14.25C7.84729 14.25 3.34729 8.24 3.34729 5.75C3.34729 4.55653 3.8214 3.41193 4.66531 2.56802C5.50922 1.72411 6.65382 1.25 7.84729 1.25C9.04076 1.25 10.1854 1.72411 11.0293 2.56802C11.8732 3.41193 12.3473 4.55653 12.3473 5.75V5.75Z" stroke="#000001" stroke-linecap="round" stroke-linejoin="round"/>
<path d="M7.84729 7.25C8.67572 7.25 9.34729 6.57843 9.34729 5.75C9.34729 4.92157 8.67572 4.25 7.84729 4.25C7.01886 4.25 6.34729 4.92157 6.34729 5.75C6.34729 6.57843 7.01886 7.25 7.84729 7.25Z" stroke="#000001" stroke-linecap="round" stroke-linejoin="round"/>
</g>
<defs>
<clipPath id="clip0_1545_13417">
<rect width="14" height="14" fill="white" transform="translate(0.84729 0.75)"/>
</clipPath>
</defs>
</svg>
